<svg width="12" height="12" viewBox="0 0 8 8" fill="none" xmlns="http://www.w3.org/2000/svg">
<path d="M4 5.6C4.11277 5.6 4.2073 5.56167 4.28358 5.485C4.35987 5.40833 4.39801 5.31333 4.39801 5.2C4.39801 5.08667 4.35987 4.99167 4.28358 4.915C4.2073 4.83833 4.11277 4.8 4 4.8C3.88723 4.8 3.7927 4.83833 3.71642 4.915C3.64013 4.99167 3.60199 5.08667 3.60199 5.2C3.60199 5.31333 3.64013 5.40833 3.71642 5.485C3.7927 5.56167 3.88723 5.6 4 5.6ZM3.60199 4.4H4.39801V2.4H3.60199V4.4ZM2.90547 8L2.74627 6.72C2.66003 6.68667 2.57877 6.64667 2.50249 6.6C2.4262 6.55333 2.35158 6.50333 2.27861 6.45L1.09453 6.95L0 5.05L1.02488 4.27C1.01824 4.22333 1.01493 4.17833 1.01493 4.135V3.865C1.01493 3.82167 1.01824 3.77667 1.02488 3.73L0 2.95L1.09453 1.05L2.27861 1.55C2.35158 1.49667 2.42786 1.44667 2.50746 1.4C2.58706 1.35333 2.66667 1.31333 2.74627 1.28L2.90547 0H5.09453L5.25373 1.28C5.33997 1.31333 5.42123 1.35333 5.49751 1.4C5.5738 1.44667 5.64842 1.49667 5.72139 1.55L6.90547 1.05L8 2.95L6.97512 3.73C6.98176 3.77667 6.98507 3.82167 6.98507 3.865V4.135C6.98507 4.17833 6.97844 4.22333 6.96517 4.27L7.99005 5.05L6.89552 6.95L5.72139 6.45C5.64842 6.50333 5.57214 6.55333 5.49254 6.6C5.41294 6.64667 5.33333 6.68667 5.25373 6.72L5.09453 8H2.90547ZM3.60199 7.2H4.38806L4.52736 6.14C4.733 6.08667 4.92371 6.00833 5.0995 5.905C5.27529 5.80167 5.43615 5.67667 5.58209 5.53L6.56716 5.94L6.95522 5.26L6.0995 4.61C6.13267 4.51667 6.15589 4.41833 6.16915 4.315C6.18242 4.21167 6.18905 4.10667 6.18905 4C6.18905 3.89333 6.18242 3.78833 6.16915 3.685C6.15589 3.58167 6.13267 3.48333 6.0995 3.39L6.95522 2.74L6.56716 2.06L5.58209 2.48C5.43615 2.32667 5.27529 2.19833 5.0995 2.095C4.92371 1.99167 4.733 1.91333 4.52736 1.86L4.39801 0.8H3.61194L3.47264 1.86C3.267 1.91333 3.07629 1.99167 2.9005 2.095C2.72471 2.19833 2.56385 2.32333 2.41791 2.47L1.43284 2.06L1.04478 2.74L1.9005 3.38C1.86733 3.48 1.84411 3.58 1.83085 3.68C1.81758 3.78 1.81095 3.88667 1.81095 4C1.81095 4.10667 1.81758 4.21 1.83085 4.31C1.84411 4.41 1.86733 4.51 1.9005 4.61L1.04478 5.26L1.43284 5.94L2.41791 5.52C2.56385 5.67333 2.72471 5.80167 2.9005 5.905C3.07629 6.00833 3.267 6.08667 3.47264 6.14L3.60199 7.2Z" fill="#239687"/>
</svg>
