<svg width="21" height="22" viewBox="0 0 21 22" fill="none" xmlns="http://www.w3.org/2000/svg">
<path d="M5.69224 20.0671C4.48982 19.3832 3.48961 18.5123 2.69162 17.4544C1.89364 16.3965 1.32598 15.2539 0.988657 14.0266C0.651332 12.7993 0.55527 11.5271 0.70047 10.21C0.84567 8.89289 1.26024 7.63311 1.94419 6.43069C2.88358 4.77916 4.18187 3.49955 5.83904 2.59184C7.49621 1.68414 9.27376 1.28112 11.1717 1.3828C11.0296 1.66629 10.9 1.96165 10.7827 2.26887C10.6655 2.57608 10.5505 2.94687 10.4376 3.38121C9.032 3.42534 7.72987 3.80158 6.53123 4.50991C5.33259 5.21825 4.38306 6.18812 3.68264 7.41952C2.57844 9.36079 2.31681 11.3882 2.89776 13.5019C3.4787 15.6155 4.73981 17.2245 6.68108 18.3287C8.62235 19.4329 10.6498 19.6945 12.7634 19.1135C14.8771 18.5326 16.486 17.2715 17.5902 15.3302C18.2906 14.0988 18.641 12.7834 18.6414 11.3838C18.6417 9.9843 18.2944 8.66505 17.5994 7.42608C17.915 7.10709 18.1749 6.81871 18.3791 6.56094C18.5832 6.30316 18.774 6.05213 18.9513 5.80784C20.0087 7.38719 20.5728 9.1174 20.6438 10.9985C20.7147 12.8795 20.2763 14.653 19.3287 16.3191C18.6447 17.5215 17.7738 18.5217 16.7159 19.3197C15.658 20.1177 14.5155 20.6853 13.2882 21.0226C12.0609 21.36 10.7887 21.456 9.47157 21.3108C8.15445 21.1656 6.89467 20.7511 5.69224 20.0671ZM7.66992 16.5902C6.22121 15.7662 5.27822 14.5587 4.84095 12.9678C4.40367 11.3769 4.59705 9.85707 5.42108 8.40836C5.89902 7.56811 6.53283 6.88363 7.32251 6.35492C8.11218 5.82621 8.98755 5.50922 9.94861 5.40395C9.89744 5.66246 9.83498 5.95768 9.76121 6.28962C9.68745 6.62156 9.60352 7.0388 9.50942 7.54132C9.00118 7.69324 8.54839 7.92463 8.15106 8.23551C7.75373 8.54638 7.42322 8.93361 7.15953 9.3972C6.61567 10.3533 6.49054 11.3655 6.78414 12.4337C7.07774 13.5019 7.70261 14.3079 8.65875 14.8518C9.6149 15.3956 10.6271 15.5208 11.6953 15.2272C12.7634 14.9336 13.5695 14.3087 14.1133 13.3525C14.377 12.889 14.5409 12.407 14.6051 11.9066C14.6692 11.4062 14.6366 10.8987 14.5075 10.3842C14.8211 10.1025 15.1095 9.83987 15.3726 9.59645C15.6357 9.35302 15.8776 9.12153 16.0984 8.90196C16.4991 9.78182 16.6777 10.6983 16.6341 11.6514C16.5905 12.6045 16.3297 13.5011 15.8518 14.3414C15.0277 15.7901 13.8203 16.7331 12.2294 17.1704C10.6384 17.6076 9.11862 17.4142 7.66992 16.5902ZM11.4977 7.83817C11.8846 5.91073 12.1822 4.57004 12.3905 3.81612C12.5988 3.06219 12.8555 2.41722 13.1603 1.8812C13.5064 1.27274 14.009 0.877937 14.6681 0.696781C15.3272 0.515625 15.961 0.598093 16.5695 0.944186C17.1779 1.29028 17.5727 1.79287 17.7539 2.45197C17.935 3.11106 17.8526 3.74484 17.5065 4.35329C17.2016 4.88931 16.7784 5.43952 16.2368 6.00392C15.6953 6.56832 14.6951 7.50935 13.2361 8.82701L11.4977 7.83817ZM9.64759 13.1133C9.16952 12.8414 8.85708 12.4384 8.71028 11.9043C8.56349 11.3702 8.62605 10.8641 8.89798 10.386C9.16991 9.90796 9.57292 9.59553 10.107 9.44873C10.6411 9.30193 11.1472 9.3645 11.6253 9.63643C12.1033 9.90836 12.4158 10.3114 12.5626 10.8455C12.7094 11.3796 12.6468 11.8856 12.3749 12.3637C12.1029 12.8418 11.6999 13.1542 11.1658 13.301C10.6317 13.4478 10.1257 13.3853 9.64759 13.1133Z" fill="#C8FF50"/>
</svg>
