<svg width="16" height="24" viewBox="0 0 16 24" fill="none" xmlns="http://www.w3.org/2000/svg">
<rect y="20" width="16" height="4" fill="#C8FF50"/>
<path d="M8 7.72947C6.9 7.72947 6 7.36876 5.3 6.64734C4.6 5.92593 4.25 4.99839 4.25 3.86473C4.25 2.73108 4.6 1.80354 5.3 1.08213C6 0.360709 6.9 0 8 0C9.1 0 10 0.360709 10.7 1.08213C11.4 1.80354 11.75 2.73108 11.75 3.86473C11.75 4.99839 11.4 5.92593 10.7 6.64734C10 7.36876 9.1 7.72947 8 7.72947ZM0 16V13.5781C0 12.9254 0.158333 12.3672 0.475 11.9034C0.791667 11.4396 1.2 11.0875 1.7 10.847C2.81667 10.3317 3.8875 9.94525 4.9125 9.6876C5.9375 9.42995 6.96667 9.30113 8 9.30113C9.03333 9.30113 10.0583 9.43425 11.075 9.70048C12.0917 9.96672 13.1583 10.3489 14.275 10.847C14.7917 11.0875 15.2083 11.4396 15.525 11.9034C15.8417 12.3672 16 12.9254 16 13.5781V16H0Z" fill="#EAEAEA"/>
</svg>
