<svg width="116" height="43" viewBox="0 0 116 43" fill="none" xmlns="http://www.w3.org/2000/svg">
<path d="M35.6641 16.7188C35.6719 17.0469 35.7656 17.3438 35.9453 17.6094C36.1328 17.8672 36.3789 18.1133 36.6836 18.3477C36.9336 18.543 37.2812 18.7734 37.7266 19.0391C38.1719 19.3047 38.5586 19.5352 38.8867 19.7305C39.2852 19.9727 39.6758 20.2422 40.0586 20.5391C40.4414 20.8281 40.7852 21.1562 41.0898 21.5234C41.3945 21.8906 41.6406 22.3047 41.8281 22.7656C42.0156 23.2266 42.1172 23.75 42.1328 24.3359V24.4297C42.1328 25.0547 42.0547 25.6133 41.8984 26.1055C41.5859 27.0352 41.0781 27.7266 40.375 28.1797C40.0156 28.4141 39.6562 28.5938 39.2969 28.7188C38.9141 28.8516 38.5273 28.9453 38.1367 29C37.7539 29.0547 37.3906 29.0859 37.0469 29.0938H36.9297C36.2812 29.0938 35.6992 29.0273 35.1836 28.8945C34.6836 28.7617 34.2539 28.5859 33.8945 28.3672C33.5352 28.1406 33.2383 27.8828 33.0039 27.5938C32.7617 27.3047 32.5703 27.0039 32.4297 26.6914C32.2891 26.3867 32.1875 26.082 32.125 25.7773C32.0625 25.4727 32.0312 25.1875 32.0312 24.9219C32.0312 24.3906 32.1914 23.9922 32.5117 23.7266C32.8398 23.4609 33.2344 23.3281 33.6953 23.3281C34.1406 23.3281 34.5508 23.4648 34.9258 23.7383C35.3086 24.0039 35.5078 24.3906 35.5234 24.8984C35.5391 25.4844 35.6719 25.8867 35.9219 26.1055C36.1719 26.3164 36.5312 26.4219 37 26.4219C37.5078 26.4062 37.9023 26.2773 38.1836 26.0352C38.4727 25.793 38.6172 25.3594 38.6172 24.7344C38.6172 24.1953 38.457 23.7188 38.1367 23.3047C37.8242 22.8906 37.4258 22.5117 36.9414 22.168C36.457 21.8164 35.9531 21.4766 35.4297 21.1484C34.8828 20.7969 34.3672 20.4297 33.8828 20.0469C33.3984 19.6562 33.0039 19.2148 32.6992 18.7227C32.3945 18.2305 32.2344 17.6562 32.2188 17V16.8125C32.2266 15.9766 32.3359 15.2812 32.5469 14.7266C32.7656 14.1719 33.0859 13.7305 33.5078 13.4023C33.9219 13.0742 34.4336 12.8438 35.043 12.7109C35.6523 12.5703 36.3516 12.5 37.1406 12.5H37.4453C38.1484 12.5 38.7578 12.5781 39.2734 12.7344C39.7734 12.8906 40.1875 13.0898 40.5156 13.332C40.8516 13.5742 41.1172 13.8477 41.3125 14.1523C41.5 14.4492 41.6406 14.75 41.7344 15.0547C41.8281 15.3516 41.8867 15.6289 41.9102 15.8867C41.9336 16.1445 41.9453 16.3516 41.9453 16.5078C41.9453 16.9688 41.7773 17.3438 41.4414 17.6328C41.1133 17.9141 40.7109 18.0547 40.2344 18.0547C39.875 18.0547 39.5234 17.9219 39.1797 17.6562C38.8359 17.3906 38.6641 17.1016 38.6641 16.7891C38.6641 16.1484 38.5469 15.7031 38.3125 15.4531C38.0859 15.2031 37.75 15.0781 37.3047 15.0781C36.7891 15.0781 36.3867 15.1719 36.0977 15.3594C35.8086 15.5469 35.6641 16 35.6641 16.7188ZM45.0859 33.6875C44.1953 33.6875 43.5625 33.5586 43.1875 33.3008C42.8125 33.0508 42.625 32.6797 42.625 32.1875C42.625 31.7266 42.7422 31.3945 42.9766 31.1914C43.2109 30.9961 43.5156 30.8984 43.8906 30.8984C43.9531 30.8984 44.0078 30.8984 44.0547 30.8984C44.1094 30.8984 44.1641 30.9023 44.2188 30.9102C44.2734 30.918 44.3203 30.9219 44.3594 30.9219C44.4062 30.9219 44.4453 30.9219 44.4766 30.9219C44.6719 30.9219 44.8594 30.7695 45.0391 30.4648C45.2266 30.168 45.4062 29.8125 45.5781 29.3984C45.7578 28.9844 45.9297 28.6172 46.0938 28.2969L45.9062 27.8281C45.7812 27.5078 45.6289 27.125 45.4492 26.6797C45.2773 26.2344 45.1016 25.7852 44.9219 25.332C44.7422 24.8711 44.5859 24.4648 44.4531 24.1133C44.2109 23.4648 43.9688 22.8242 43.7266 22.1914C43.4844 21.5508 43.2656 20.9297 43.0703 20.3281C42.9844 20.0781 42.9102 19.832 42.8477 19.5898C42.793 19.3477 42.7656 19.1094 42.7656 18.875C42.7656 18.4219 42.9414 18.043 43.293 17.7383C43.6523 17.4336 44.0703 17.2812 44.5469 17.2812C44.9922 17.2812 45.3555 17.457 45.6367 17.8086C45.9258 18.1602 46.1484 18.5703 46.3047 19.0391L47.875 23.9844L49.375 19.0391C49.5156 18.5938 49.7344 18.1836 50.0312 17.8086C50.3281 17.4258 50.7031 17.2344 51.1562 17.2344C51.6172 17.2344 52.0117 17.3984 52.3398 17.7266C52.6758 18.0547 52.8438 18.4609 52.8438 18.9453C52.8438 19.1797 52.8125 19.4141 52.75 19.6484C52.6953 19.875 52.625 20.1016 52.5391 20.3281L49.7266 27.7812C49.6484 27.9922 49.5625 28.207 49.4688 28.4258C49.3828 28.6445 49.293 28.8711 49.1992 29.1055C49.0039 29.5586 48.793 30.0039 48.5664 30.4414C48.3398 30.8789 48.0977 31.293 47.8398 31.6836C47.7148 31.8789 47.582 32.0625 47.4414 32.2344C47.3086 32.4062 47.168 32.5664 47.0195 32.7148C46.7305 33.0117 46.4219 33.2461 46.0938 33.418C45.7734 33.5977 45.4375 33.6875 45.0859 33.6875ZM57.6484 20.3516C57.6484 20.6719 57.8516 20.9531 58.2578 21.1953C58.6641 21.4297 59.0938 21.6562 59.5469 21.875C60.1016 22.1406 60.6367 22.4336 61.1523 22.7539C61.668 23.0742 62.0898 23.457 62.418 23.9023C62.7539 24.3477 62.9219 24.9062 62.9219 25.5781C62.9219 26.0312 62.8555 26.4453 62.7227 26.8203C62.4414 27.5234 61.9961 28.0508 61.3867 28.4023C61.2383 28.4883 61.082 28.5664 60.918 28.6367C60.7617 28.6992 60.6016 28.7578 60.4375 28.8125C60.1016 28.9141 59.7617 28.9844 59.418 29.0234C59.0742 29.0703 58.75 29.0938 58.4453 29.0938C57.8281 29.0938 57.3047 29.043 56.875 28.9414C56.4297 28.8398 56.0469 28.707 55.7266 28.543C55.4062 28.3711 55.1445 28.1758 54.9414 27.957C54.6523 27.6602 54.4453 27.332 54.3203 26.9727C54.1953 26.6133 54.1328 26.2734 54.1328 25.9531C54.1328 25.0469 54.6641 24.5938 55.7266 24.5938C56.1172 24.5938 56.4375 24.6992 56.6875 24.9102C56.9375 25.1211 57.0703 25.4609 57.0859 25.9297C57.1016 26.2266 57.25 26.4258 57.5312 26.5273C57.8125 26.6289 58.1094 26.6797 58.4219 26.6797C58.7266 26.6797 58.9727 26.6016 59.1602 26.4453C59.3555 26.2812 59.4531 26.0703 59.4531 25.8125C59.4531 25.5078 59.3398 25.2344 59.1133 24.9922C58.8867 24.75 58.5977 24.5273 58.2461 24.3242C57.9023 24.1211 57.5547 23.9219 57.2031 23.7266C56.7188 23.4688 56.2461 23.1914 55.7852 22.8945C55.3242 22.5898 54.9453 22.2422 54.6484 21.8516C54.3516 21.4531 54.2031 20.9844 54.2031 20.4453C54.2031 19.8359 54.3008 19.3281 54.4961 18.9219C54.6992 18.5078 54.9922 18.1719 55.375 17.9141C55.7578 17.6641 56.2227 17.4844 56.7695 17.375C57.3242 17.2656 57.9531 17.2031 58.6562 17.1875H58.8438C59.4609 17.1875 60 17.2422 60.4609 17.3516C60.8984 17.4609 61.2617 17.6055 61.5508 17.7852C61.8477 17.957 62.082 18.1523 62.2539 18.3711C62.4883 18.6758 62.6367 18.9883 62.6992 19.3086C62.7695 19.6211 62.8047 19.9141 62.8047 20.1875C62.8047 20.6484 62.6328 20.9609 62.2891 21.125C61.9531 21.2812 61.5547 21.3672 61.0938 21.3828C60.75 21.3828 60.457 21.2812 60.2148 21.0781C59.9727 20.8672 59.8516 20.6406 59.8516 20.3984C59.8359 20.1016 59.7148 19.875 59.4883 19.7188C59.2695 19.5625 59 19.4844 58.6797 19.4844C58.3984 19.4844 58.1562 19.5508 57.9531 19.6836C57.75 19.8086 57.6484 20.0312 57.6484 20.3516ZM73.3281 14.7969L75.7656 23.0703C75.7734 23.3359 75.7812 23.6055 75.7891 23.8789C75.8047 24.1523 75.8164 24.4258 75.8242 24.6992C75.8477 25.2461 75.8594 25.7812 75.8594 26.3047V26.6562C75.8594 27.1016 75.8281 27.5 75.7656 27.8516C75.7109 28.2031 75.5703 28.4844 75.3438 28.6953C75.1172 28.8984 74.75 29 74.2422 29C73.7344 29 73.3633 28.8984 73.1289 28.6953C72.8945 28.4844 72.7461 28.2031 72.6836 27.8516C72.6289 27.5 72.6016 27.1016 72.6016 26.6562V25.0156H67.9141V26.6562C67.9141 27.1016 67.8828 27.5 67.8203 27.8516C67.7656 28.2031 67.6211 28.4844 67.3867 28.6953C67.1602 28.8984 66.7891 29 66.2734 29C65.7578 29 65.3867 28.8984 65.1602 28.6953C64.9336 28.4844 64.793 28.2031 64.7383 27.8516C64.6836 27.5 64.6562 27.1016 64.6562 26.6562V26.3047C64.6562 26.0312 64.6602 25.6953 64.668 25.2969C64.6758 24.8984 64.6836 24.4961 64.6914 24.0898C64.707 23.6836 64.7188 23.3438 64.7266 23.0703C64.9219 22.3906 65.1211 21.707 65.3242 21.0195C65.5273 20.3242 65.7383 19.6289 65.957 18.9336C66.1758 18.2383 66.3867 17.5469 66.5898 16.8594C66.793 16.1719 66.9922 15.4844 67.1875 14.7969C67.3672 14.1484 67.6211 13.6211 67.9492 13.2148C68.2852 12.8008 68.8594 12.5938 69.6719 12.5938H70.8438C71.6797 12.5938 72.2539 12.8008 72.5664 13.2148C72.8789 13.6211 73.1328 14.1484 73.3281 14.7969ZM70.3984 15.6406H70.1406L68.4062 21.9219H72.1328L70.3984 15.6406ZM78.3672 26.375V15.1953C78.3672 14.7188 78.4062 14.2852 78.4844 13.8945C78.5703 13.5039 78.7422 13.1914 79 12.957C79.2578 12.7148 79.6406 12.5938 80.1484 12.5938C80.6641 12.5938 81.0469 12.7109 81.2969 12.9453C81.5547 13.1797 81.7227 13.4961 81.8008 13.8945C81.8867 14.2852 81.9297 14.7188 81.9297 15.1953V26.375C81.9297 26.8516 81.8867 27.2891 81.8008 27.6875C81.7227 28.0859 81.5547 28.4062 81.2969 28.6484C81.0469 28.8828 80.6641 29 80.1484 29C79.6406 29 79.2578 28.8828 79 28.6484C78.7422 28.4062 78.5703 28.0859 78.4844 27.6875C78.4062 27.2891 78.3672 26.8516 78.3672 26.375ZM94.5625 21.5938V22.3203C94.5625 22.7031 94.4648 23.0469 94.2695 23.3516C94.082 23.6484 93.625 23.7969 92.8984 23.7969H88.2344V24.9219C88.2344 25.3516 88.3438 25.75 88.5625 26.1172C88.7891 26.4766 89.1641 26.6562 89.6875 26.6562C90.1016 26.6562 90.4023 26.5898 90.5898 26.457C90.7773 26.3164 90.9375 26.1367 91.0703 25.918C91.1562 25.7852 91.2617 25.668 91.3867 25.5664C91.5195 25.457 91.6992 25.3672 91.9258 25.2969C92.1523 25.2188 92.4688 25.1797 92.875 25.1797C93.2969 25.1797 93.6562 25.2617 93.9531 25.4258C94.25 25.582 94.3984 25.8906 94.3984 26.3516C94.3984 26.8594 94.2383 27.2852 93.918 27.6289C93.5977 27.9648 93.1953 28.2344 92.7109 28.4375C92.2266 28.6406 91.6992 28.7852 91.1289 28.8711C90.5664 28.957 90.0391 29 89.5469 29C88.8984 28.9922 88.2812 28.9102 87.6953 28.7539C87.1094 28.5977 86.5938 28.3477 86.1484 28.0039C85.6953 27.6602 85.3359 27.2109 85.0703 26.6562C84.8047 26.1016 84.6719 25.4219 84.6719 24.6172V21.875C84.6719 21.1406 84.7617 20.5117 84.9414 19.9883C85.1211 19.4727 85.3477 19.043 85.6211 18.6992C85.9023 18.3555 86.2188 18.0859 86.5703 17.8906C86.9219 17.7031 87.2773 17.5625 87.6367 17.4688C87.9961 17.375 88.3359 17.3164 88.6562 17.293C88.9844 17.2695 89.2656 17.2578 89.5 17.2578C90.2891 17.2578 90.9648 17.3281 91.5273 17.4688C92.082 17.6094 92.5469 17.793 92.9219 18.0195C93.2969 18.2461 93.5938 18.5078 93.8125 18.8047C94.0391 19.0938 94.2031 19.3984 94.3047 19.7188C94.4141 20.0312 94.4844 20.3516 94.5156 20.6797C94.5469 21.0078 94.5625 21.3125 94.5625 21.5938ZM88.2344 21.2188V22.0391H91.1641C91.1641 21.5312 91.1367 21.1094 91.082 20.7734C91.0352 20.4297 90.9023 20.1719 90.6836 20C90.4727 19.8281 90.1172 19.7422 89.6172 19.7422C89.0469 19.7422 88.6719 19.8984 88.4922 20.2109C88.3203 20.5156 88.2344 20.8516 88.2344 21.2188ZM104.57 19.0391C104.57 20.2109 103.992 20.7969 102.836 20.7969C102.664 20.7969 102.461 20.8203 102.227 20.8672C102 20.9062 101.773 20.9922 101.547 21.125C101.375 21.2266 101.219 21.3594 101.078 21.5234C100.938 21.6953 100.824 21.9102 100.738 22.168C100.652 22.4258 100.609 22.7344 100.609 23.0938V26.4453C100.609 26.9062 100.566 27.332 100.48 27.7227C100.395 28.1055 100.223 28.4141 99.9648 28.6484C99.7148 28.8828 99.3359 29 98.8281 29C98.3359 29 97.9648 28.8828 97.7148 28.6484C97.4648 28.4141 97.2969 28.1016 97.2109 27.7109C97.1328 27.3203 97.0938 26.8984 97.0938 26.4453V19.8828C97.0938 19.4062 97.1328 18.9766 97.2109 18.5938C97.2969 18.2031 97.4648 17.8906 97.7148 17.6562C97.9648 17.4219 98.3359 17.3047 98.8281 17.3047C99.3438 17.3047 99.7109 17.4453 99.9297 17.7266C100.156 18 100.293 18.3555 100.34 18.793C100.395 19.2227 100.422 19.6797 100.422 20.1641H100.609C100.812 19.3672 101.141 18.6914 101.594 18.1367C102.047 17.582 102.547 17.3047 103.094 17.3047C103.695 17.3047 104.09 17.4414 104.277 17.7148C104.473 17.9883 104.57 18.4297 104.57 19.0391ZM107.195 17.2812H107.852V15.2188C107.852 14.75 107.891 14.3164 107.969 13.918C108.055 13.5195 108.227 13.1992 108.484 12.957C108.742 12.7148 109.125 12.5938 109.633 12.5938C110.141 12.5938 110.52 12.7148 110.77 12.957C111.02 13.1992 111.184 13.5195 111.262 13.918C111.348 14.3086 111.391 14.7422 111.391 15.2188V17.2812H112.352C112.836 17.2812 113.238 17.3594 113.559 17.5156C113.879 17.6719 114.039 18.0625 114.039 18.6875C114.039 19.2812 113.879 19.6641 113.559 19.8359C113.238 20.0078 112.836 20.0938 112.352 20.0938H111.391V24.1953C111.391 24.5703 111.445 24.9141 111.555 25.2266C111.672 25.5391 111.969 25.6953 112.445 25.6953C113.016 25.6953 113.422 25.7969 113.664 26C113.914 26.2031 114.039 26.6016 114.039 27.1953C114.039 27.8203 113.77 28.2773 113.23 28.5664C112.699 28.8555 112.086 29 111.391 29C110.836 29 110.363 28.9414 109.973 28.8242C109.215 28.6055 108.68 28.1797 108.367 27.5469C108.211 27.2422 108.098 26.9062 108.027 26.5391C107.949 26.1641 107.898 25.7617 107.875 25.332C107.859 24.8945 107.852 24.4375 107.852 23.9609V20.0938H107.195C106.719 20.0938 106.32 20.0078 106 19.8359C105.688 19.6641 105.531 19.2812 105.531 18.6875C105.531 18.0625 105.688 17.6719 106 17.5156C106.32 17.3594 106.719 17.2812 107.195 17.2812Z" fill="white"/>
<path d="M8.69224 31.0671C7.48982 30.3832 6.48961 29.5123 5.69162 28.4544C4.89364 27.3965 4.32598 26.2539 3.98866 25.0266C3.65133 23.7993 3.55527 22.5271 3.70047 21.21C3.84567 19.8929 4.26024 18.6331 4.94419 17.4307C5.88358 15.7792 7.18187 14.4995 8.83904 13.5918C10.4962 12.6841 12.2738 12.2811 14.1717 12.3828C14.0296 12.6663 13.9 12.9616 13.7827 13.2689C13.6655 13.5761 13.5505 13.9469 13.4376 14.3812C12.032 14.4253 10.7299 14.8016 9.53123 15.5099C8.33259 16.2183 7.38306 17.1881 6.68264 18.4195C5.57844 20.3608 5.31681 22.3882 5.89776 24.5019C6.4787 26.6155 7.73981 28.2245 9.68108 29.3287C11.6223 30.4329 13.6498 30.6945 15.7634 30.1135C17.8771 29.5326 19.486 28.2715 20.5902 26.3302C21.2906 25.0988 21.641 23.7834 21.6414 22.3838C21.6417 20.9843 21.2944 19.665 20.5994 18.4261C20.915 18.1071 21.1749 17.8187 21.3791 17.5609C21.5832 17.3032 21.774 17.0521 21.9513 16.8078C23.0087 18.3872 23.5728 20.1174 23.6438 21.9985C23.7147 23.8795 23.2763 25.653 22.3287 27.3191C21.6447 28.5215 20.7738 29.5217 19.7159 30.3197C18.658 31.1177 17.5155 31.6853 16.2882 32.0226C15.0609 32.36 13.7887 32.456 12.4716 32.3108C11.1544 32.1656 9.89467 31.7511 8.69224 31.0671ZM10.6699 27.5902C9.22121 26.7662 8.27822 25.5587 7.84095 23.9678C7.40367 22.3769 7.59705 20.8571 8.42108 19.4084C8.89902 18.5681 9.53283 17.8836 10.3225 17.3549C11.1122 16.8262 11.9876 16.5092 12.9486 16.404C12.8974 16.6625 12.835 16.9577 12.7612 17.2896C12.6875 17.6216 12.6035 18.0388 12.5094 18.5413C12.0012 18.6932 11.5484 18.9246 11.1511 19.2355C10.7537 19.5464 10.4232 19.9336 10.1595 20.3972C9.61567 21.3533 9.49054 22.3655 9.78414 23.4337C10.0777 24.5019 10.7026 25.3079 11.6588 25.8518C12.6149 26.3956 13.6271 26.5208 14.6953 26.2272C15.7634 25.9336 16.5695 25.3087 17.1133 24.3525C17.377 23.889 17.5409 23.407 17.6051 22.9066C17.6692 22.4062 17.6366 21.8987 17.5075 21.3842C17.8211 21.1025 18.1095 20.8399 18.3726 20.5964C18.6357 20.353 18.8776 20.1215 19.0984 19.902C19.4991 20.7818 19.6777 21.6983 19.6341 22.6514C19.5905 23.6045 19.3297 24.5011 18.8518 25.3414C18.0277 26.7901 16.8203 27.7331 15.2294 28.1704C13.6384 28.6076 12.1186 28.4142 10.6699 27.5902ZM14.4977 18.8382C14.8846 16.9107 15.1822 15.57 15.3905 14.8161C15.5988 14.0622 15.8555 13.4172 16.1603 12.8812C16.5064 12.2727 17.009 11.8779 17.6681 11.6968C18.3272 11.5156 18.961 11.5981 19.5695 11.9442C20.1779 12.2903 20.5727 12.7929 20.7539 13.452C20.935 14.1111 20.8526 14.7448 20.5065 15.3533C20.2016 15.8893 19.7784 16.4395 19.2368 17.0039C18.6953 17.5683 17.6951 18.5093 16.2361 19.827L14.4977 18.8382ZM12.6476 24.1133C12.1695 23.8414 11.8571 23.4384 11.7103 22.9043C11.5635 22.3702 11.6261 21.8641 11.898 21.386C12.1699 20.908 12.5729 20.5955 13.107 20.4487C13.6411 20.3019 14.1472 20.3645 14.6253 20.6364C15.1033 20.9084 15.4158 21.3114 15.5626 21.8455C15.7094 22.3796 15.6468 22.8856 15.3749 23.3637C15.1029 23.8418 14.6999 24.1542 14.1658 24.301C13.6317 24.4478 13.1257 24.3853 12.6476 24.1133Z" fill="#C8FF50"/>
</svg>
