<svg width="173" height="44" viewBox="0 0 173 44" fill="none" xmlns="http://www.w3.org/2000/svg">
<path d="M54.0898 14.7402C54.1016 15.2378 54.2438 15.6881 54.5163 16.0909C54.8007 16.4819 55.174 16.8552 55.6361 17.2106C56.0152 17.5069 56.5425 17.8564 57.2179 18.2593C57.8933 18.6621 58.4798 19.0117 58.9774 19.3079C59.5817 19.6752 60.1742 20.084 60.7548 20.5342C61.3353 20.9727 61.8567 21.4703 62.3188 22.0272C62.7809 22.5841 63.1541 23.2121 63.4385 23.9112C63.7229 24.6102 63.8769 25.4041 63.9006 26.2928V26.435C63.9006 27.3829 63.7821 28.2301 63.5452 28.9765C63.0712 30.3865 62.301 31.4352 61.2346 32.1224C60.6896 32.4779 60.1445 32.7504 59.5995 32.94C59.0189 33.1414 58.4324 33.2836 57.8399 33.3665C57.2593 33.4495 56.7084 33.4969 56.187 33.5087H56.0093C55.0258 33.5087 54.1431 33.408 53.3611 33.2066C52.6028 33.0051 51.9511 32.7385 51.406 32.4068C50.861 32.0632 50.4107 31.6721 50.0553 31.2337C49.6879 30.7953 49.3976 30.3392 49.1844 29.8652C48.9711 29.4031 48.8171 28.941 48.7223 28.4789C48.6275 28.0168 48.5801 27.5843 48.5801 27.1814C48.5801 26.3757 48.823 25.7714 49.3088 25.3686C49.8064 24.9657 50.4048 24.7643 51.1039 24.7643C51.7793 24.7643 52.4013 24.9716 52.9701 25.3863C53.5507 25.7892 53.8528 26.3757 53.8765 27.1459C53.9002 28.0346 54.1016 28.6448 54.4808 28.9765C54.86 29.2965 55.405 29.4564 56.1159 29.4564C56.8861 29.4327 57.4845 29.2372 57.911 28.8699C58.3494 28.5026 58.5686 27.845 58.5686 26.8971C58.5686 26.0795 58.3257 25.3567 57.8399 24.7287C57.366 24.1007 56.7617 23.5261 56.0271 23.0047C55.2924 22.4715 54.5282 21.9561 53.7343 21.4585C52.9049 20.9253 52.1229 20.3684 51.3883 19.7878C50.6536 19.1953 50.0553 18.5259 49.5932 17.7794C49.131 17.0329 48.8881 16.162 48.8645 15.1667V14.8824C48.8763 13.6145 49.0422 12.56 49.3621 11.7187C49.6939 10.8774 50.1797 10.208 50.8195 9.71034C51.4475 9.21269 52.2236 8.86315 53.1478 8.66172C54.072 8.44844 55.1325 8.3418 56.3292 8.3418H56.7913C57.8577 8.3418 58.7819 8.46029 59.5639 8.69726C60.3223 8.93424 60.9503 9.23638 61.4479 9.6037C61.9574 9.97101 62.3603 10.3857 62.6565 10.8478C62.9409 11.2981 63.1541 11.7543 63.2963 12.2164C63.4385 12.6666 63.5274 13.0873 63.5629 13.4783C63.5985 13.8693 63.6162 14.1833 63.6162 14.4202C63.6162 15.1193 63.3615 15.6881 62.852 16.1265C62.3543 16.553 61.7441 16.7663 61.0214 16.7663C60.4763 16.7663 59.9431 16.5649 59.4218 16.162C58.9004 15.7592 58.6397 15.3208 58.6397 14.8468C58.6397 13.8752 58.462 13.1998 58.1065 12.8207C57.7629 12.4415 57.2534 12.2519 56.578 12.2519C55.796 12.2519 55.1858 12.3941 54.7474 12.6785C54.309 12.9628 54.0898 13.6501 54.0898 14.7402Z" fill="#239687"/>
<path d="M68.3795 40.4758C67.0287 40.4758 66.069 40.2803 65.5002 39.8893C64.9315 39.5102 64.6471 38.9473 64.6471 38.2009C64.6471 37.5018 64.8248 36.9982 65.1803 36.6901C65.5358 36.3939 65.9979 36.2458 66.5666 36.2458C66.6614 36.2458 66.7443 36.2458 66.8154 36.2458C66.8984 36.2458 66.9813 36.2517 67.0643 36.2636C67.1472 36.2754 67.2183 36.2813 67.2775 36.2813C67.3486 36.2813 67.4079 36.2813 67.4553 36.2813C67.7515 36.2813 68.0359 36.0503 68.3084 35.5882C68.5928 35.1379 68.8653 34.5988 69.126 33.9708C69.3985 33.3428 69.6591 32.7859 69.908 32.3001L69.6236 31.5892C69.434 31.1034 69.203 30.5228 68.9304 29.8474C68.6698 29.172 68.4032 28.4907 68.1306 27.8035C67.8581 27.1044 67.6212 26.4883 67.4197 25.9551C67.0524 24.9716 66.6851 24 66.3178 23.0403C65.9505 22.0687 65.6187 21.1267 65.3225 20.2143C65.1921 19.8352 65.0796 19.4619 64.9848 19.0946C64.9018 18.7273 64.8604 18.3659 64.8604 18.0104C64.8604 17.3232 65.127 16.7485 65.6602 16.2864C66.2052 15.8243 66.8391 15.5933 67.5619 15.5933C68.2373 15.5933 68.7883 15.8599 69.2148 16.3931C69.6532 16.9263 69.9909 17.5483 70.2279 18.2593L72.6095 25.7596L74.8845 18.2593C75.0978 17.5839 75.4295 16.9618 75.8798 16.3931C76.33 15.8125 76.8988 15.5222 77.586 15.5222C78.2851 15.5222 78.8835 15.771 79.3811 16.2687C79.8906 16.7663 80.1454 17.3825 80.1454 18.1171C80.1454 18.4725 80.098 18.828 80.0032 19.1835C79.9202 19.5271 79.8136 19.8707 79.6833 20.2143L75.4177 31.5181C75.2992 31.838 75.1689 32.1639 75.0267 32.4956C74.8963 32.8274 74.7601 33.171 74.6179 33.5265C74.3217 34.2137 74.0017 34.8891 73.6581 35.5526C73.3145 36.2162 72.9472 36.8442 72.5562 37.4366C72.3666 37.7328 72.1652 38.0113 71.9519 38.2719C71.7505 38.5326 71.5372 38.7755 71.3121 39.0007C70.8737 39.4509 70.4056 39.8064 69.908 40.067C69.4222 40.3396 68.9127 40.4758 68.3795 40.4758Z" fill="#239687"/>
<path d="M87.4324 20.2499C87.4324 20.7357 87.7405 21.1622 88.3566 21.5295C88.9727 21.885 89.6244 22.2286 90.3117 22.5604C91.1529 22.9633 91.9646 23.4076 92.7466 23.8934C93.5286 24.3792 94.1685 24.9598 94.6661 25.6352C95.1756 26.3106 95.4304 27.1577 95.4304 28.1767C95.4304 28.864 95.3296 29.492 95.1282 30.0607C94.7017 31.1271 94.0263 31.9269 93.1021 32.4601C92.8769 32.5904 92.64 32.7089 92.3911 32.8156C92.1542 32.9104 91.9113 32.9992 91.6624 33.0822C91.1529 33.2362 90.6375 33.3428 90.1162 33.4021C89.5948 33.4732 89.1031 33.5087 88.641 33.5087C87.7049 33.5087 86.911 33.4317 86.2594 33.2777C85.584 33.1236 85.0034 32.9222 84.5176 32.6734C84.0318 32.4127 83.6348 32.1165 83.3268 31.7847C82.8884 31.3345 82.5744 30.8368 82.3848 30.2918C82.1952 29.7467 82.1004 29.2313 82.1004 28.7455C82.1004 27.371 82.9061 26.6838 84.5176 26.6838C85.11 26.6838 85.5958 26.8437 85.975 27.1637C86.3542 27.4836 86.5556 27.999 86.5793 28.7099C86.603 29.1602 86.8281 29.4623 87.2547 29.6164C87.6812 29.7704 88.1315 29.8474 88.6054 29.8474C89.0675 29.8474 89.4408 29.7289 89.7251 29.492C90.0214 29.2431 90.1695 28.9232 90.1695 28.5322C90.1695 28.0701 89.9977 27.6554 89.6541 27.2881C89.3104 26.9208 88.872 26.5831 88.3388 26.275C87.8175 25.9669 87.2902 25.6648 86.757 25.3686C86.0224 24.9776 85.3055 24.5569 84.6064 24.1067C83.9074 23.6446 83.3327 23.1173 82.8824 22.5248C82.4322 21.9206 82.2071 21.2096 82.2071 20.3921C82.2071 19.4679 82.3552 18.6977 82.6514 18.0815C82.9595 17.4535 83.4038 16.944 83.9844 16.553C84.565 16.1739 85.27 15.9014 86.0994 15.7355C86.9407 15.5696 87.8945 15.4748 88.9609 15.4511H89.2453C90.1813 15.4511 90.9989 15.534 91.698 15.6999C92.3615 15.8658 92.9125 16.085 93.3509 16.3575C93.8011 16.6182 94.1566 16.9144 94.4173 17.2462C94.7727 17.7083 94.9979 18.1823 95.0927 18.6681C95.1993 19.142 95.2526 19.5863 95.2526 20.001C95.2526 20.7001 94.992 21.1741 94.4706 21.4229C93.9611 21.6599 93.3568 21.7902 92.6577 21.8139C92.1364 21.8139 91.6921 21.6599 91.3247 21.3518C90.9574 21.0319 90.7738 20.6883 90.7738 20.321C90.7501 19.8707 90.5664 19.5271 90.2228 19.2901C89.891 19.0531 89.4822 18.9347 88.9964 18.9347C88.5699 18.9347 88.2026 19.0354 87.8945 19.2368C87.5864 19.4264 87.4324 19.7641 87.4324 20.2499Z" fill="#239687"/>
<path d="M111.213 11.8254L114.91 24.3733C114.922 24.7761 114.934 25.1849 114.945 25.5996C114.969 26.0143 114.987 26.429 114.999 26.8437C115.034 27.6732 115.052 28.4848 115.052 29.2787V29.8119C115.052 30.4873 115.005 31.0916 114.91 31.6248C114.827 32.1579 114.614 32.5845 114.27 32.9044C113.926 33.2125 113.369 33.3665 112.599 33.3665C111.829 33.3665 111.266 33.2125 110.911 32.9044C110.555 32.5845 110.33 32.1579 110.235 31.6248C110.153 31.0916 110.111 30.4873 110.111 29.8119V27.3236H103.002V29.8119C103.002 30.4873 102.954 31.0916 102.86 31.6248C102.777 32.1579 102.557 32.5845 102.202 32.9044C101.858 33.2125 101.296 33.3665 100.514 33.3665C99.7315 33.3665 99.1687 33.2125 98.825 32.9044C98.4814 32.5845 98.2682 32.1579 98.1852 31.6248C98.1023 31.0916 98.0608 30.4873 98.0608 29.8119V29.2787C98.0608 28.864 98.0667 28.3545 98.0786 27.7502C98.0904 27.1459 98.1023 26.5357 98.1141 25.9195C98.1378 25.3034 98.1556 24.788 98.1674 24.3733C98.4637 23.3424 98.7658 22.3056 99.0739 21.2629C99.3819 20.2084 99.7019 19.1539 100.034 18.0993C100.365 17.0448 100.685 15.9961 100.993 14.9534C101.301 13.9107 101.604 12.8681 101.9 11.8254C102.172 10.8419 102.557 10.0421 103.055 9.42597C103.565 8.79798 104.435 8.48398 105.668 8.48398H107.445C108.713 8.48398 109.584 8.79798 110.058 9.42597C110.532 10.0421 110.917 10.8419 111.213 11.8254ZM106.77 13.105H106.379L103.748 22.6315H109.4L106.77 13.105Z" fill="#239687"/>
<path d="M118.855 29.3853V12.4296C118.855 11.7069 118.915 11.0493 119.033 10.4568C119.164 9.86437 119.424 9.39042 119.815 9.03495C120.206 8.66764 120.787 8.48398 121.557 8.48398C122.339 8.48398 122.92 8.66172 123.299 9.01718C123.69 9.37265 123.945 9.85252 124.063 10.4568C124.193 11.0493 124.259 11.7069 124.259 12.4296V29.3853C124.259 30.1081 124.193 30.7716 124.063 31.3759C123.945 31.9802 123.69 32.466 123.299 32.8333C122.92 33.1888 122.339 33.3665 121.557 33.3665C120.787 33.3665 120.206 33.1888 119.815 32.8333C119.424 32.466 119.164 31.9802 119.033 31.3759C118.915 30.7716 118.855 30.1081 118.855 29.3853Z" fill="#239687"/>
<path d="M143.418 22.1338V23.2358C143.418 23.8164 143.27 24.3377 142.974 24.7998C142.689 25.2501 141.996 25.4752 140.894 25.4752H133.821V27.1814C133.821 27.8331 133.986 28.4374 134.318 28.9943C134.662 29.5394 135.231 29.8119 136.024 29.8119C136.652 29.8119 137.109 29.7112 137.393 29.5097C137.677 29.2965 137.92 29.0239 138.122 28.6922C138.252 28.4907 138.412 28.313 138.602 28.159C138.803 27.9931 139.076 27.8568 139.419 27.7502C139.763 27.6317 140.243 27.5725 140.859 27.5725C141.499 27.5725 142.044 27.6969 142.494 27.9457C142.944 28.1827 143.169 28.6507 143.169 29.3498C143.169 30.12 142.926 30.7657 142.441 31.2871C141.955 31.7966 141.345 32.2053 140.61 32.5134C139.875 32.8215 139.076 33.0407 138.211 33.171C137.357 33.3014 136.558 33.3665 135.811 33.3665C134.828 33.3547 133.892 33.2303 133.003 32.9933C132.114 32.7563 131.332 32.3772 130.657 31.8558C129.97 31.3345 129.425 30.6531 129.022 29.8119C128.619 28.9706 128.418 27.9398 128.418 26.7193V22.5604C128.418 21.4466 128.554 20.4928 128.826 19.6989C129.099 18.9169 129.442 18.2652 129.857 17.7438C130.284 17.2225 130.764 16.8137 131.297 16.5175C131.83 16.2331 132.369 16.0198 132.914 15.8777C133.459 15.7355 133.975 15.6466 134.46 15.6111C134.958 15.5755 135.385 15.5577 135.74 15.5577C136.937 15.5577 137.962 15.6644 138.815 15.8777C139.656 16.0909 140.361 16.3694 140.93 16.713C141.499 17.0566 141.949 17.4535 142.281 17.9038C142.624 18.3422 142.873 18.8043 143.027 19.2901C143.193 19.7641 143.3 20.2499 143.347 20.7475C143.394 21.2452 143.418 21.7073 143.418 22.1338ZM133.821 21.5651V22.8092H138.264C138.264 22.039 138.222 21.3992 138.139 20.8897C138.068 20.3684 137.867 19.9774 137.535 19.7167C137.215 19.456 136.676 19.3257 135.918 19.3257C135.053 19.3257 134.484 19.5626 134.212 20.0366C133.951 20.4987 133.821 21.0082 133.821 21.5651Z" fill="#239687"/>
<path d="M158.596 18.2593C158.596 20.0366 157.72 20.9253 155.966 20.9253C155.705 20.9253 155.397 20.9608 155.042 21.0319C154.698 21.0911 154.355 21.2215 154.011 21.4229C153.75 21.5769 153.513 21.7784 153.3 22.0272C153.087 22.2879 152.915 22.6137 152.785 23.0047C152.654 23.3957 152.589 23.8638 152.589 24.4088V29.492C152.589 30.191 152.524 30.8368 152.394 31.4292C152.263 32.0098 152.003 32.4779 151.612 32.8333C151.232 33.1888 150.658 33.3665 149.888 33.3665C149.141 33.3665 148.578 33.1888 148.199 32.8333C147.82 32.4779 147.565 32.0039 147.435 31.4115C147.316 30.819 147.257 30.1792 147.257 29.492V19.5389C147.257 18.8162 147.316 18.1645 147.435 17.5839C147.565 16.9914 147.82 16.5175 148.199 16.162C148.578 15.8066 149.141 15.6288 149.888 15.6288C150.67 15.6288 151.227 15.8421 151.558 16.2687C151.902 16.6834 152.109 17.2225 152.18 17.886C152.263 18.5377 152.305 19.2309 152.305 19.9655H152.589C152.897 18.7569 153.395 17.732 154.082 16.8907C154.769 16.0495 155.528 15.6288 156.357 15.6288C157.269 15.6288 157.868 15.8362 158.152 16.2509C158.448 16.6656 158.596 17.3351 158.596 18.2593Z" fill="#239687"/>
<path d="M162.578 15.5933H163.573V12.4652C163.573 11.7543 163.632 11.0967 163.751 10.4924C163.881 9.88807 164.142 9.40227 164.533 9.03495C164.924 8.66764 165.504 8.48398 166.275 8.48398C167.045 8.48398 167.619 8.66764 167.999 9.03495C168.378 9.40227 168.627 9.88807 168.745 10.4924C168.875 11.0848 168.941 11.7424 168.941 12.4652V15.5933H170.398C171.133 15.5933 171.743 15.7118 172.229 15.9487C172.714 16.1857 172.957 16.7782 172.957 17.7261C172.957 18.6266 172.714 19.2072 172.229 19.4679C171.743 19.7285 171.133 19.8589 170.398 19.8589H168.941V26.0795C168.941 26.6482 169.023 27.1696 169.189 27.6435C169.367 28.1175 169.817 28.3545 170.54 28.3545C171.405 28.3545 172.021 28.5085 172.389 28.8166C172.768 29.1246 172.957 29.7289 172.957 30.6294C172.957 31.5774 172.548 32.2705 171.731 32.7089C170.925 33.1473 169.995 33.3665 168.941 33.3665C168.099 33.3665 167.382 33.2777 166.79 33.0999C165.641 32.7682 164.829 32.1224 164.355 31.1626C164.118 30.7005 163.946 30.191 163.84 29.6341C163.721 29.0654 163.644 28.4552 163.609 27.8035C163.585 27.14 163.573 26.4468 163.573 25.724V19.8589H162.578C161.855 19.8589 161.251 19.7285 160.765 19.4679C160.291 19.2072 160.054 18.6266 160.054 17.7261C160.054 16.7782 160.291 16.1857 160.765 15.9487C161.251 15.7118 161.855 15.5933 162.578 15.5933Z" fill="#239687"/>
<path d="M13.183 36.5014C11.3593 35.4641 9.84237 34.1432 8.6321 32.5388C7.42183 30.9343 6.5609 29.2014 6.0493 27.3401C5.53769 25.4787 5.392 23.5492 5.61222 21.5516C5.83243 19.554 6.4612 17.6434 7.4985 15.8197C8.92324 13.3149 10.8923 11.3742 13.4056 9.99752C15.919 8.62085 18.6149 8.00962 21.4934 8.16382C21.2779 8.59378 21.0813 9.04174 20.9035 9.50768C20.7257 9.97362 20.5512 10.536 20.3801 11.1947C18.2482 11.2616 16.2734 11.8323 14.4554 12.9066C12.6375 13.9809 11.1974 15.4518 10.1351 17.3194C8.46043 20.2636 8.06364 23.3386 8.94473 26.5443C9.82583 29.7499 11.7385 32.1901 14.6827 33.8648C17.6269 35.5395 20.7019 35.9363 23.9075 35.0552C27.1132 34.1741 29.5534 32.2614 31.2281 29.3172C32.2904 27.4496 32.8218 25.4545 32.8223 23.3319C32.8228 21.2093 32.296 19.2085 31.2419 17.3294C31.7207 16.8456 32.1149 16.4082 32.4245 16.0173C32.7341 15.6263 33.0234 15.2456 33.2923 14.8751C34.896 17.2704 35.7517 19.8945 35.8592 22.7474C35.9668 25.6003 35.3019 28.2902 33.8647 30.8169C32.8274 32.6406 31.5065 34.1575 29.9021 35.3678C28.2976 36.5781 26.5647 37.439 24.7034 37.9506C22.842 38.4622 20.9125 38.6079 18.9149 38.3877C16.9173 38.1675 15.0067 37.5387 13.183 36.5014ZM16.1824 31.2282C13.9853 29.9784 12.5551 28.1471 11.8919 25.7342C11.2287 23.3214 11.522 21.0163 12.7717 18.8191C13.4966 17.5448 14.4579 16.5067 15.6555 15.7048C16.8532 14.9029 18.1808 14.4222 19.6384 14.2625C19.5608 14.6546 19.4661 15.1023 19.3542 15.6058C19.2423 16.1092 19.115 16.742 18.9723 17.5042C18.2015 17.7346 17.5148 18.0855 16.9122 18.557C16.3096 19.0285 15.8083 19.6158 15.4084 20.3189C14.5835 21.769 14.3937 23.3041 14.839 24.9242C15.2843 26.5442 16.232 27.7667 17.6822 28.5915C19.1323 29.4164 20.6674 29.6062 22.2875 29.1609C23.9075 28.7156 25.13 27.7679 25.9548 26.3178C26.3548 25.6147 26.6033 24.8836 26.7006 24.1247C26.7979 23.3658 26.7485 22.5962 26.5526 21.8159C27.0283 21.3885 27.4657 20.9902 27.8647 20.6211C28.2637 20.2519 28.6306 19.9008 28.9655 19.5678C29.5732 20.9022 29.844 22.2922 29.7779 23.7377C29.7118 25.1832 29.3163 26.5431 28.5914 27.8175C27.3417 30.0147 25.5104 31.4448 23.0975 32.108C20.6846 32.7712 18.3796 32.4779 16.1824 31.2282ZM21.9878 17.9544C22.5746 15.0311 23.026 12.9978 23.3419 11.8543C23.6579 10.7109 24.0471 9.73268 24.5095 8.91972C25.0344 7.99691 25.7967 7.39812 26.7963 7.12337C27.7959 6.84862 28.7571 6.9737 29.6799 7.4986C30.6027 8.0235 31.2015 8.78576 31.4763 9.78538C31.751 10.785 31.6259 11.7462 31.101 12.669C30.6386 13.482 29.9968 14.3165 29.1754 15.1725C28.3541 16.0284 26.8371 17.4557 24.6244 19.4541L21.9878 17.9544ZM19.1819 25.9549C18.4568 25.5425 17.9829 24.9313 17.7603 24.1212C17.5377 23.3112 17.6326 22.5437 18.045 21.8186C18.4574 21.0935 19.0686 20.6197 19.8787 20.397C20.6887 20.1744 21.4562 20.2693 22.1813 20.6817C22.9064 21.0941 23.3802 21.7053 23.6029 22.5154C23.8255 23.3254 23.7306 24.093 23.3182 24.818C22.9058 25.5431 22.2946 26.017 21.4845 26.2396C20.6745 26.4622 19.9069 26.3674 19.1819 25.9549Z" fill="#C8FF50"/>
</svg>
